<?xml version="1.0" encoding="UTF-8" standalone="no"?>
<!DOCTYPE svg PUBLIC "-//W3C//DTD SVG 1.1//EN" "http://www.w3.org/Graphics/SVG/1.1/DTD/svg11.dtd">
<svg width="100%" height="100%" viewBox="0 0 1080 1350" version="1.1" xmlns="http://www.w3.org/2000/svg" xmlns:xlink="http://www.w3.org/1999/xlink" xml:space="preserve" xmlns:serif="http://www.serif.com/" style="fill-rule:evenodd;clip-rule:evenodd;stroke-linejoin:round;stroke-miterlimit:2;">
    <g id="Flower6.png" transform="matrix(1.023699,-0.445149,0.445149,1.023699,-124.167389,496.509301)">
        <path d="M449.63,235.393C449.905,235.359 450.18,235.324 450.454,235.289C450.558,235.059 451.108,235.563 451.212,235.332C451.377,234.966 450.86,234.949 452.255,230.427C485.837,121.61 547.413,66.887 547.65,66.648C603.741,9.794 662.293,-2.732 692.285,30.69C746.476,91.079 681.933,196.568 681.022,198.242C641.768,270.33 615.776,294.115 615.785,294.525C615.823,296.366 616.767,294.985 621.555,292.624C655.475,275.896 693.024,270.95 699.456,270.103C925.279,240.358 961.953,366.501 890.046,432.004C829.138,487.488 684.124,468.21 683.607,468.712C682.301,469.98 683.877,469.933 688.274,472.827C751.628,514.524 775.791,560.376 776.05,560.784C862.26,696.827 799.501,753.859 734.497,750.567C665.525,747.075 617.466,709.172 575.868,636.286C543.932,580.33 539.495,560.833 537.494,560.766C536.859,560.744 536.617,560.637 536.576,561.526C532.878,641.453 475.076,783.515 372.368,812.001C277.225,838.39 238.896,732.94 271.094,632.379C273.606,624.534 288.133,579.165 319.587,541.545C324.671,535.465 309.445,546.424 269.526,553.667C240.691,558.899 198.234,558.292 191.489,557.672C186.74,557.236 100.357,553.594 42.821,510.085C-20.675,462.07 -20.537,362.551 120.481,338.394C188.517,326.74 295.807,343.111 297.444,341.42C298.668,340.155 297.16,340.266 293.704,338.194C212.861,289.717 144.312,183.099 175.503,83.501C205.844,-13.378 359.643,-55.871 424.399,144.535C432.528,169.693 449.582,235.176 449.63,235.393ZM704.093,93.501C702.884,112.749 704.719,142.183 650.362,230.414C613.297,290.576 581.816,311.824 602.44,310.141C616.107,309.026 651.266,278.141 748.507,276.823C759.249,276.678 852.393,270.305 895.363,319.616C930.435,359.863 914.592,450.428 776.471,458.078C680.863,463.373 680.299,452.588 657.479,458.437C641.405,462.556 712.766,483.942 761.931,558.212C887.555,747.986 724.434,776.431 640.605,702.381C567.554,637.853 539.306,515.66 529.408,532.431C528.281,534.339 526.066,693.381 415.871,777.968C379.767,805.682 316.184,825.611 284.844,765.325C264.764,726.699 266.45,660.361 297.781,597.64C323.174,546.807 354.244,515.265 336.638,520.911C331.274,522.631 312.381,537.528 251.541,544.798C155.707,556.25 5.603,520.564 13.942,427.542C17.679,385.845 71.402,344.514 178.5,344.804C238.998,344.967 262.84,351.042 312.501,351.676C324.19,351.826 331.639,360.394 336.265,357.169C344.462,351.454 263.576,328.527 212.024,244.793C149.672,143.518 176.087,40.205 256.583,15.809C285.107,7.163 362.668,6.337 408.164,132.614C426.555,183.662 441.54,270.607 453.324,257.362C455.556,254.852 478.342,159.857 538.625,91.609C561.28,65.961 597.153,29.49 642.464,23.277C673.813,18.978 701.321,39.118 704.093,93.501Z" style="fill-opacity:0.99;"/>
        <path d="M444.111,402.515C445.188,338.967 499.908,341.761 514.053,382.656C528.891,425.555 491.834,461.628 464.833,443.027C444.115,428.754 444.306,404.109 444.111,402.515Z" style="fill-opacity:1;"/>
        <path d="M235.517,449.131C331.797,453.186 333.587,440.837 344.541,441.194C354.769,441.527 314.319,453.441 286.538,455.949C188.419,464.804 157.362,435.882 140.057,421.828C115.198,401.64 147.311,427.914 177.381,438.8C200.796,447.277 226.913,448.364 235.517,449.131Z" style="fill-opacity:0.98;"/>
        <path d="M685.519,378.855C682.185,379.088 636.472,382.288 643.756,377.904C649.498,374.447 667.342,376.347 744.493,364.452C746.539,364.136 784.796,358.238 770.341,363.124C732.04,376.07 704.993,377.226 685.519,378.855Z" style="fill-opacity:0.98;"/>
        <path d="M564.745,222.606C549.484,257.323 544.302,276.742 545.754,264.493C551.292,217.78 609.907,127.73 613.631,128.296C616.751,128.771 598.485,147.459 564.745,222.606Z" style="fill-opacity:0.96;"/>
        <path d="M677.451,575.547C654.932,551.189 628.025,528.633 616.126,519.93C599.108,507.483 623.04,519.343 644.152,535.944C684.126,567.38 712.569,611.402 712.577,611.496C712.942,615.837 710.231,610.899 677.451,575.547Z" style="fill-opacity:0.98;"/>
        <path d="M324.274,220.618C321.059,213.966 321.044,214.061 317.976,207.284C304.52,177.551 295.301,136.235 295.695,135.6C296.924,133.62 298.275,138.243 298.365,138.548C299.167,141.292 304.313,158.896 309.622,172.453C333.234,232.758 345.365,246.195 357.047,265.641C357.329,266.111 356.738,268.411 354.798,266.204C339.244,248.521 326.349,224.486 324.274,220.618Z" style="fill-opacity:0.95;"/>
        <path d="M408.772,588.626C372.02,666.327 375.009,673.6 371.538,685.522C368.852,694.749 367.617,671.856 385.907,627.672C403.739,584.595 418.73,558.928 422.069,553.209C442.84,517.644 410.082,585.898 408.772,588.626Z" style="fill-opacity:0.95;"/>
    </g>
</svg>
